<mxfile host="app.diagrams.net" agent="Mozilla/5.0 (Windows NT 10.0; Win64; x64) AppleWebKit/537.36 (KHTML, like Gecko) Chrome/127.0.0.0 Safari/537.36" version="24.7.7">
  <diagram name="Page-1" id="0xw-eZ6XzdoFV_w8F20K">
    <mxGraphModel dx="1167" dy="580" grid="1" gridSize="10" guides="1" tooltips="1" connect="1" arrows="1" fold="1" page="1" pageScale="1" pageWidth="827" pageHeight="1169" math="0" shadow="0">
      <root>
        <mxCell id="0" />
        <mxCell id="1" parent="0" />
        <mxCell id="I7-wFfN0pXQICp2Qh86X-2" value="KAFIĆ" style="swimlane;whiteSpace=wrap;html=1;" vertex="1" parent="1">
          <mxGeometry x="251" y="40" width="319" height="560" as="geometry" />
        </mxCell>
        <mxCell id="I7-wFfN0pXQICp2Qh86X-19" value="Prijava" style="ellipse;whiteSpace=wrap;html=1;align=center;" vertex="1" parent="I7-wFfN0pXQICp2Qh86X-2">
          <mxGeometry x="19" y="70" width="91" height="30" as="geometry" />
        </mxCell>
        <mxCell id="I7-wFfN0pXQICp2Qh86X-20" value="Pregled stolova" style="ellipse;whiteSpace=wrap;html=1;align=center;" vertex="1" parent="I7-wFfN0pXQICp2Qh86X-2">
          <mxGeometry x="19" y="110" width="91" height="30" as="geometry" />
        </mxCell>
        <mxCell id="I7-wFfN0pXQICp2Qh86X-22" value="Unos narudžbe" style="ellipse;whiteSpace=wrap;html=1;align=center;" vertex="1" parent="I7-wFfN0pXQICp2Qh86X-2">
          <mxGeometry x="19" y="150" width="91" height="30" as="geometry" />
        </mxCell>
        <mxCell id="I7-wFfN0pXQICp2Qh86X-24" value="Izdavanje računa" style="ellipse;whiteSpace=wrap;html=1;align=center;" vertex="1" parent="I7-wFfN0pXQICp2Qh86X-2">
          <mxGeometry x="19" y="190" width="91" height="30" as="geometry" />
        </mxCell>
        <mxCell id="I7-wFfN0pXQICp2Qh86X-26" value="&lt;font style=&quot;font-size: 8px;&quot;&gt;Pregled izvještaja o narudžbama&lt;/font&gt;" style="ellipse;whiteSpace=wrap;html=1;align=center;" vertex="1" parent="I7-wFfN0pXQICp2Qh86X-2">
          <mxGeometry x="19" y="230" width="91" height="30" as="geometry" />
        </mxCell>
        <mxCell id="I7-wFfN0pXQICp2Qh86X-28" value="Upravljanje korisnnicima" style="ellipse;whiteSpace=wrap;html=1;align=center;" vertex="1" parent="I7-wFfN0pXQICp2Qh86X-2">
          <mxGeometry x="190" y="70" width="91" height="30" as="geometry" />
        </mxCell>
        <mxCell id="I7-wFfN0pXQICp2Qh86X-31" value="Upravljanje stolovima" style="ellipse;whiteSpace=wrap;html=1;align=center;" vertex="1" parent="I7-wFfN0pXQICp2Qh86X-2">
          <mxGeometry x="190" y="110" width="91" height="30" as="geometry" />
        </mxCell>
        <mxCell id="I7-wFfN0pXQICp2Qh86X-33" value="Upravljanje artiklima" style="ellipse;whiteSpace=wrap;html=1;align=center;" vertex="1" parent="I7-wFfN0pXQICp2Qh86X-2">
          <mxGeometry x="190" y="150" width="91" height="30" as="geometry" />
        </mxCell>
        <mxCell id="I7-wFfN0pXQICp2Qh86X-35" value="&lt;font style=&quot;font-size: 9px;&quot;&gt;Pregled i upravlja izvještajima&lt;/font&gt;" style="ellipse;whiteSpace=wrap;html=1;align=center;" vertex="1" parent="I7-wFfN0pXQICp2Qh86X-2">
          <mxGeometry x="190" y="190" width="91" height="30" as="geometry" />
        </mxCell>
        <mxCell id="I7-wFfN0pXQICp2Qh86X-46" value="&lt;font size=&quot;1&quot;&gt;Obrada plaćanja&lt;/font&gt;" style="ellipse;whiteSpace=wrap;html=1;align=center;" vertex="1" parent="I7-wFfN0pXQICp2Qh86X-2">
          <mxGeometry x="19" y="420" width="91" height="30" as="geometry" />
        </mxCell>
        <mxCell id="I7-wFfN0pXQICp2Qh86X-48" value="&lt;font size=&quot;1&quot;&gt;Validacija transakcije&lt;/font&gt;" style="ellipse;whiteSpace=wrap;html=1;align=center;" vertex="1" parent="I7-wFfN0pXQICp2Qh86X-2">
          <mxGeometry x="19" y="480" width="91" height="30" as="geometry" />
        </mxCell>
        <mxCell id="I7-wFfN0pXQICp2Qh86X-52" value="&lt;font style=&quot;font-size: 9px;&quot;&gt;Pregled poslovanja kafića&lt;/font&gt;" style="ellipse;whiteSpace=wrap;html=1;align=center;" vertex="1" parent="I7-wFfN0pXQICp2Qh86X-2">
          <mxGeometry x="190" y="420" width="91" height="30" as="geometry" />
        </mxCell>
        <mxCell id="I7-wFfN0pXQICp2Qh86X-54" value="&lt;font style=&quot;font-size: 8px;&quot;&gt;Pregled izvještaja o prodaji&lt;/font&gt;" style="ellipse;whiteSpace=wrap;html=1;align=center;" vertex="1" parent="I7-wFfN0pXQICp2Qh86X-2">
          <mxGeometry x="190" y="480" width="91" height="30" as="geometry" />
        </mxCell>
        <mxCell id="I7-wFfN0pXQICp2Qh86X-59" value="" style="endArrow=none;dashed=1;html=1;rounded=0;entryX=0.5;entryY=1;entryDx=0;entryDy=0;exitX=0.5;exitY=0;exitDx=0;exitDy=0;" edge="1" parent="I7-wFfN0pXQICp2Qh86X-2" source="I7-wFfN0pXQICp2Qh86X-20" target="I7-wFfN0pXQICp2Qh86X-19">
          <mxGeometry width="50" height="50" relative="1" as="geometry">
            <mxPoint x="19" y="190" as="sourcePoint" />
            <mxPoint x="69" y="140" as="targetPoint" />
          </mxGeometry>
        </mxCell>
        <mxCell id="I7-wFfN0pXQICp2Qh86X-60" value="" style="endArrow=none;dashed=1;html=1;rounded=0;exitX=0.5;exitY=0;exitDx=0;exitDy=0;entryX=0.5;entryY=1;entryDx=0;entryDy=0;" edge="1" parent="I7-wFfN0pXQICp2Qh86X-2" source="I7-wFfN0pXQICp2Qh86X-22" target="I7-wFfN0pXQICp2Qh86X-20">
          <mxGeometry width="50" height="50" relative="1" as="geometry">
            <mxPoint x="19" y="190" as="sourcePoint" />
            <mxPoint x="69" y="140" as="targetPoint" />
          </mxGeometry>
        </mxCell>
        <mxCell id="I7-wFfN0pXQICp2Qh86X-62" value="" style="endArrow=none;dashed=1;html=1;rounded=0;exitX=0.5;exitY=0;exitDx=0;exitDy=0;entryX=0.5;entryY=1;entryDx=0;entryDy=0;" edge="1" parent="I7-wFfN0pXQICp2Qh86X-2" source="I7-wFfN0pXQICp2Qh86X-26" target="I7-wFfN0pXQICp2Qh86X-24">
          <mxGeometry width="50" height="50" relative="1" as="geometry">
            <mxPoint x="29" y="260" as="sourcePoint" />
            <mxPoint x="79" y="210" as="targetPoint" />
          </mxGeometry>
        </mxCell>
        <mxCell id="I7-wFfN0pXQICp2Qh86X-4" value="KONOBAR" style="shape=umlActor;verticalLabelPosition=bottom;verticalAlign=top;html=1;outlineConnect=0;" vertex="1" parent="1">
          <mxGeometry x="80" y="100" width="50" height="100" as="geometry" />
        </mxCell>
        <mxCell id="I7-wFfN0pXQICp2Qh86X-8" value="SUSTAV NAPLATE" style="shape=umlActor;verticalLabelPosition=bottom;verticalAlign=top;html=1;outlineConnect=0;" vertex="1" parent="1">
          <mxGeometry x="80" y="470" width="50" height="100" as="geometry" />
        </mxCell>
        <mxCell id="I7-wFfN0pXQICp2Qh86X-10" value="VLASNIK" style="shape=umlActor;verticalLabelPosition=bottom;verticalAlign=top;html=1;outlineConnect=0;" vertex="1" parent="1">
          <mxGeometry x="690" y="470" width="50" height="100" as="geometry" />
        </mxCell>
        <mxCell id="I7-wFfN0pXQICp2Qh86X-12" value="ADMINISTRATOR" style="shape=umlActor;verticalLabelPosition=bottom;verticalAlign=top;html=1;outlineConnect=0;" vertex="1" parent="1">
          <mxGeometry x="700" y="110" width="50" height="100" as="geometry" />
        </mxCell>
        <mxCell id="I7-wFfN0pXQICp2Qh86X-37" value="" style="endArrow=none;html=1;rounded=0;entryX=0;entryY=0.5;entryDx=0;entryDy=0;" edge="1" parent="1" source="I7-wFfN0pXQICp2Qh86X-4" target="I7-wFfN0pXQICp2Qh86X-19">
          <mxGeometry width="50" height="50" relative="1" as="geometry">
            <mxPoint x="390" y="190" as="sourcePoint" />
            <mxPoint x="440" y="140" as="targetPoint" />
          </mxGeometry>
        </mxCell>
        <mxCell id="I7-wFfN0pXQICp2Qh86X-38" value="" style="endArrow=none;html=1;rounded=0;entryX=0;entryY=0.5;entryDx=0;entryDy=0;" edge="1" parent="1" source="I7-wFfN0pXQICp2Qh86X-4" target="I7-wFfN0pXQICp2Qh86X-20">
          <mxGeometry width="50" height="50" relative="1" as="geometry">
            <mxPoint x="390" y="190" as="sourcePoint" />
            <mxPoint x="440" y="140" as="targetPoint" />
          </mxGeometry>
        </mxCell>
        <mxCell id="I7-wFfN0pXQICp2Qh86X-39" value="" style="endArrow=none;html=1;rounded=0;entryX=0;entryY=0.5;entryDx=0;entryDy=0;" edge="1" parent="1" source="I7-wFfN0pXQICp2Qh86X-4" target="I7-wFfN0pXQICp2Qh86X-22">
          <mxGeometry width="50" height="50" relative="1" as="geometry">
            <mxPoint x="390" y="190" as="sourcePoint" />
            <mxPoint x="440" y="140" as="targetPoint" />
          </mxGeometry>
        </mxCell>
        <mxCell id="I7-wFfN0pXQICp2Qh86X-40" value="" style="endArrow=none;html=1;rounded=0;entryX=0;entryY=0.5;entryDx=0;entryDy=0;" edge="1" parent="1" source="I7-wFfN0pXQICp2Qh86X-4" target="I7-wFfN0pXQICp2Qh86X-24">
          <mxGeometry width="50" height="50" relative="1" as="geometry">
            <mxPoint x="390" y="190" as="sourcePoint" />
            <mxPoint x="440" y="140" as="targetPoint" />
          </mxGeometry>
        </mxCell>
        <mxCell id="I7-wFfN0pXQICp2Qh86X-41" value="" style="endArrow=none;html=1;rounded=0;entryX=0;entryY=0.5;entryDx=0;entryDy=0;" edge="1" parent="1" source="I7-wFfN0pXQICp2Qh86X-4" target="I7-wFfN0pXQICp2Qh86X-26">
          <mxGeometry width="50" height="50" relative="1" as="geometry">
            <mxPoint x="390" y="190" as="sourcePoint" />
            <mxPoint x="440" y="140" as="targetPoint" />
          </mxGeometry>
        </mxCell>
        <mxCell id="I7-wFfN0pXQICp2Qh86X-42" value="" style="endArrow=none;html=1;rounded=0;exitX=1;exitY=0.5;exitDx=0;exitDy=0;" edge="1" parent="1" source="I7-wFfN0pXQICp2Qh86X-31" target="I7-wFfN0pXQICp2Qh86X-12">
          <mxGeometry width="50" height="50" relative="1" as="geometry">
            <mxPoint x="390" y="190" as="sourcePoint" />
            <mxPoint x="440" y="140" as="targetPoint" />
          </mxGeometry>
        </mxCell>
        <mxCell id="I7-wFfN0pXQICp2Qh86X-43" value="" style="endArrow=none;html=1;rounded=0;exitX=1;exitY=0.5;exitDx=0;exitDy=0;" edge="1" parent="1" source="I7-wFfN0pXQICp2Qh86X-28" target="I7-wFfN0pXQICp2Qh86X-12">
          <mxGeometry width="50" height="50" relative="1" as="geometry">
            <mxPoint x="390" y="190" as="sourcePoint" />
            <mxPoint x="440" y="140" as="targetPoint" />
          </mxGeometry>
        </mxCell>
        <mxCell id="I7-wFfN0pXQICp2Qh86X-44" value="" style="endArrow=none;html=1;rounded=0;exitX=1;exitY=0.5;exitDx=0;exitDy=0;" edge="1" parent="1" source="I7-wFfN0pXQICp2Qh86X-35" target="I7-wFfN0pXQICp2Qh86X-12">
          <mxGeometry width="50" height="50" relative="1" as="geometry">
            <mxPoint x="390" y="190" as="sourcePoint" />
            <mxPoint x="440" y="140" as="targetPoint" />
          </mxGeometry>
        </mxCell>
        <mxCell id="I7-wFfN0pXQICp2Qh86X-45" value="" style="endArrow=none;html=1;rounded=0;exitX=1;exitY=0.5;exitDx=0;exitDy=0;" edge="1" parent="1" source="I7-wFfN0pXQICp2Qh86X-33" target="I7-wFfN0pXQICp2Qh86X-12">
          <mxGeometry width="50" height="50" relative="1" as="geometry">
            <mxPoint x="390" y="190" as="sourcePoint" />
            <mxPoint x="440" y="140" as="targetPoint" />
          </mxGeometry>
        </mxCell>
        <mxCell id="I7-wFfN0pXQICp2Qh86X-50" value="" style="endArrow=none;html=1;rounded=0;entryX=0;entryY=0.5;entryDx=0;entryDy=0;" edge="1" parent="1" source="I7-wFfN0pXQICp2Qh86X-8" target="I7-wFfN0pXQICp2Qh86X-46">
          <mxGeometry width="50" height="50" relative="1" as="geometry">
            <mxPoint x="390" y="450" as="sourcePoint" />
            <mxPoint x="440" y="400" as="targetPoint" />
          </mxGeometry>
        </mxCell>
        <mxCell id="I7-wFfN0pXQICp2Qh86X-51" value="" style="endArrow=none;html=1;rounded=0;entryX=0;entryY=0.5;entryDx=0;entryDy=0;" edge="1" parent="1" source="I7-wFfN0pXQICp2Qh86X-8" target="I7-wFfN0pXQICp2Qh86X-48">
          <mxGeometry width="50" height="50" relative="1" as="geometry">
            <mxPoint x="390" y="450" as="sourcePoint" />
            <mxPoint x="440" y="400" as="targetPoint" />
          </mxGeometry>
        </mxCell>
        <mxCell id="I7-wFfN0pXQICp2Qh86X-56" value="" style="endArrow=none;html=1;rounded=0;exitX=1;exitY=0.5;exitDx=0;exitDy=0;" edge="1" parent="1" source="I7-wFfN0pXQICp2Qh86X-54" target="I7-wFfN0pXQICp2Qh86X-10">
          <mxGeometry width="50" height="50" relative="1" as="geometry">
            <mxPoint x="390" y="450" as="sourcePoint" />
            <mxPoint x="440" y="400" as="targetPoint" />
          </mxGeometry>
        </mxCell>
        <mxCell id="I7-wFfN0pXQICp2Qh86X-57" value="" style="endArrow=none;html=1;rounded=0;exitX=1;exitY=0.5;exitDx=0;exitDy=0;" edge="1" parent="1" source="I7-wFfN0pXQICp2Qh86X-52" target="I7-wFfN0pXQICp2Qh86X-10">
          <mxGeometry width="50" height="50" relative="1" as="geometry">
            <mxPoint x="390" y="450" as="sourcePoint" />
            <mxPoint x="440" y="400" as="targetPoint" />
          </mxGeometry>
        </mxCell>
        <mxCell id="I7-wFfN0pXQICp2Qh86X-61" value="" style="endArrow=none;dashed=1;html=1;rounded=0;exitX=0.5;exitY=0;exitDx=0;exitDy=0;" edge="1" parent="1" source="I7-wFfN0pXQICp2Qh86X-24">
          <mxGeometry width="50" height="50" relative="1" as="geometry">
            <mxPoint x="280" y="220" as="sourcePoint" />
            <mxPoint x="316" y="220" as="targetPoint" />
          </mxGeometry>
        </mxCell>
      </root>
    </mxGraphModel>
  </diagram>
</mxfile>
